<?xml version="1.0" encoding="UTF-8"?>
<svg id="Layer_1" xmlns="http://www.w3.org/2000/svg" viewBox="0 0 102.93 257.52" fill="#fff">
  <path d="M45.8,235.54v-3.19c-.23-74.41-.46-148.83-.68-223.24,0-1.16-.06-2.33.11-3.47C45.74,2.1,47.93-.02,50.91,0c2.96.02,5.13,2.18,5.62,5.71.16,1.14.11,2.31.11,3.47.23,74.32.45,148.65.68,222.97v4.22c1.66-1.64,2.85-2.77,3.97-3.96,4.9-5.26,9.81-10.51,14.67-15.81,5.45-5.95,10.85-11.93,16.24-17.93,2.66-2.96,6.13-3.51,8.74-1.27,2.49,2.13,2.71,6.14.31,8.88-3.5,4-7.06,7.95-10.68,11.84-8.6,9.23-17.26,18.39-25.86,27.63-3.01,3.24-5.87,6.62-8.83,9.9-2.27,2.52-6.32,2.48-8.58-.04-2.96-3.29-5.86-6.63-8.89-9.85-3.89-4.15-7.92-8.18-11.83-12.31-7.75-8.19-15.47-16.4-23.18-24.63-.9-.96-1.68-2.05-2.41-3.15-1.67-2.51-1.16-6.18,1.05-8.03,2.31-1.93,5.44-1.86,7.76.44,2.9,2.87,5.68,5.88,8.44,8.88,2.87,3.12,5.61,6.38,8.52,9.47,4.14,4.41,8.41,8.69,12.58,13.08,1.99,2.09,3.87,4.27,5.81,6.41.22-.12.43-.25.65-.37Z"/>
</svg>