<?xml version="1.0" encoding="UTF-8"?>
<svg id="Layer_1" xmlns="http://www.w3.org/2000/svg" viewBox="0 0 102.92 257.49" fill="#fff">
  <path d="M56.72,21.9l.05,3.19c1.12,74.41,2.24,148.81,3.36,223.22.02,1.16.08,2.33-.07,3.47-.47,3.54-2.63,5.69-5.61,5.71-2.96.02-5.16-2.12-5.69-5.64-.17-1.14-.13-2.31-.15-3.47-1.12-74.32-2.24-148.63-3.37-222.95l-.06-4.22c-1.63,1.66-2.81,2.8-3.91,4.01-4.84,5.32-9.68,10.63-14.48,15.99-5.37,6.01-10.71,12.06-16.02,18.12-2.62,2.99-6.08,3.58-8.72,1.37-2.52-2.1-2.78-6.11-.42-8.88,3.45-4.04,6.96-8.03,10.54-11.97,8.48-9.33,17.04-18.6,25.52-27.94,2.97-3.27,5.79-6.69,8.71-10.01,2.24-2.55,6.29-2.56,8.58-.07,3,3.25,5.94,6.56,9.01,9.74,3.94,4.1,8.02,8.08,11.98,12.17,7.85,8.09,15.67,16.21,23.48,24.35.91.95,1.7,2.03,2.45,3.12,1.7,2.49,1.24,6.17-.96,8.05-2.28,1.96-5.42,1.92-7.76-.35-2.94-2.84-5.75-5.81-8.55-8.78-2.91-3.09-5.69-6.31-8.63-9.37-4.2-4.36-8.52-8.59-12.74-12.92-2.01-2.06-3.93-4.23-5.88-6.34-.22.13-.43.25-.65.38Z"/>
</svg>