<?xml version="1.0" encoding="UTF-8"?>
<svg id="Layer_1" xmlns="http://www.w3.org/2000/svg" viewBox="0 0 257.52 102.93" fill="#fff">
  <path d="M235.53,57.23h-3.19c-74.41,0-148.83,0-223.24,0-1.16,0-2.33.05-3.47-.12C2.09,56.58-.03,54.39,0,51.41c.03-2.96,2.2-5.13,5.72-5.61,1.14-.16,2.31-.1,3.47-.1,74.33,0,148.65,0,222.98,0h4.22c-1.64-1.65-2.76-2.85-3.95-3.97-5.24-4.92-10.48-9.84-15.77-14.72-5.93-5.46-11.89-10.89-17.88-16.29-2.95-2.67-3.49-6.14-1.24-8.74,2.14-2.48,6.15-2.69,8.88-.29,3.99,3.51,7.93,7.08,11.81,10.72,9.2,8.62,18.34,17.32,27.55,25.94,3.23,3.02,6.6,5.89,9.88,8.86,2.51,2.27,2.46,6.32-.06,8.58-3.3,2.95-6.64,5.84-9.88,8.86-4.16,3.88-8.2,7.89-12.35,11.79-8.21,7.73-16.45,15.43-24.7,23.11-.96.9-2.06,1.67-3.16,2.4-2.51,1.66-6.19,1.14-8.03-1.08-1.92-2.31-1.84-5.44.46-7.76,2.88-2.89,5.89-5.66,8.91-8.42,3.13-2.86,6.4-5.59,9.5-8.49,4.42-4.13,8.72-8.39,13.11-12.54,2.09-1.98,4.28-3.86,6.43-5.79-.12-.22-.25-.43-.37-.65Z"/>
</svg>