<?xml version="1.0" encoding="UTF-8"?>
<svg id="Layer_1" xmlns="http://www.w3.org/2000/svg" viewBox="0 0 257.51 102.93" fill="#fff">
  <path d="M21.93,46.03l3.19-.03c74.41-.75,148.82-1.5,223.23-2.25,1.16-.01,2.33-.07,3.47.08,3.54.49,5.68,2.66,5.68,5.64,0,2.96-2.14,5.15-5.67,5.67-1.14.17-2.31.12-3.47.14-74.32.75-148.64,1.5-222.96,2.26l-4.22.04c1.66,1.63,2.79,2.82,3.99,3.93,5.29,4.87,10.58,9.74,15.92,14.56,5.98,5.4,12,10.77,18.04,16.11,2.98,2.64,3.55,6.1,1.33,8.73-2.12,2.51-6.12,2.75-8.88.38-4.03-3.47-8-7-11.91-10.6-9.29-8.53-18.51-17.13-27.81-25.66-3.26-2.99-6.66-5.83-9.97-8.76-2.53-2.25-2.52-6.3-.02-8.58,3.27-2.98,6.59-5.91,9.79-8.96,4.12-3.92,8.12-7.97,12.23-11.92,8.13-7.81,16.29-15.59,24.46-23.36.95-.91,2.04-1.69,3.13-2.43,2.49-1.69,6.17-1.21,8.04,1,1.95,2.29,1.89,5.43-.38,7.76-2.85,2.92-5.84,5.72-8.82,8.5-3.1,2.9-6.34,5.65-9.41,8.58-4.38,4.18-8.64,8.47-12.99,12.68-2.07,2-4.25,3.9-6.37,5.85.13.22.25.43.38.65Z"/>
</svg>