<?xml version="1.0" encoding="UTF-8"?>
<svg id="Layer_1" xmlns="http://www.w3.org/2000/svg" viewBox="0 0 383.26 383.2">
  <path d="M0,124.19c.6-2.13,1.13-4.27,1.8-6.38,4.29-13.4,12.89-22.9,25.99-28.08,10.42-4.12,20.92-8.05,31.47-11.83,9.33-3.34,15.48-9.52,18.78-18.88,3.56-10.1,7.42-20.09,11.24-30.1C98.74,4.13,124.74-6.62,149.02,4.23c9.78,4.37,19.58,8.7,29.25,13.31,8.94,4.26,17.68,4.31,26.63.07,9.68-4.58,19.5-8.86,29.25-13.31,24.04-10.98,50.35-.24,59.83,24.5,3.92,10.23,7.78,20.49,11.51,30.79,3.28,9.04,9.38,15.01,18.43,18.26,10.43,3.74,20.8,7.65,31.12,11.69,24.15,9.45,34.71,35.4,24.11,59.11-4.42,9.89-8.82,19.8-13.47,29.58-4.25,8.95-4.26,17.68-.01,26.63,4.54,9.56,8.82,19.25,13.17,28.9,11.12,24.66.47,50.56-24.82,60.26-10.11,3.88-20.26,7.68-30.44,11.38-8.76,3.18-14.74,9.02-17.96,17.77-3.62,9.81-7.37,19.58-10.96,29.4-6.13,16.72-17.59,27.11-35.38,30.1-.34.06-.64.35-.96.53h-10.48c-4.48-1.43-9.11-2.51-13.42-4.35-9.85-4.2-19.6-8.62-29.26-13.24-9.07-4.33-17.79-4.09-26.98-.03-14.07,6.21-27.46,14.12-42.65,17.62h-10.48c-.45-.2-.87-.5-1.34-.58-17.11-3.05-28.47-12.93-34.59-29.04-3.76-9.9-7.58-19.77-11.13-29.74-3.28-9.2-9.39-15.3-18.58-18.6-10.55-3.79-21.05-7.71-31.48-11.83-13.09-5.17-21.77-14.6-26.04-28.03-.75-2.36-1.25-4.8-1.87-7.2,0-3.49,0-6.99,0-10.48,2.55-6.98,4.88-14.05,7.71-20.92,3.03-7.36,6.4-14.59,9.87-21.76,4.38-9.04,4.1-17.78.07-26.97C11.47,163.98,3.45,150.63,0,135.41,0,131.67,0,127.93,0,124.19ZM252.72,367.92c11.82-.52,21.93-7.71,26.41-19.44,3.9-10.24,7.71-20.51,11.51-30.79,4.93-13.34,14.07-22.37,27.42-27.26,10.06-3.69,20.08-7.47,30.09-11.26,16.88-6.39,23.53-22.36,16.14-38.84-4.43-9.89-8.92-19.75-13.45-29.59-5.88-12.78-5.88-25.52,0-38.3,4.58-9.96,9.15-19.92,13.61-29.94,7.14-16.05.43-32.2-15.92-38.41-10.01-3.8-20.01-7.65-30.09-11.26-13.68-4.9-22.93-14.08-27.91-27.71-3.63-9.94-7.42-19.83-11.15-29.73-6.48-17.2-22.32-23.85-39.01-16.35-10.23,4.59-20.38,9.34-30.63,13.88-12.33,5.45-24.68,5.22-36.94-.37-9.97-4.55-19.93-9.14-29.93-13.62-16.43-7.36-32.43-.65-38.81,16.24-3.92,10.37-7.78,20.75-11.72,31.12-4.74,12.48-13.33,21.15-25.83,25.9-10.36,3.94-20.74,7.82-31.12,11.72-17.11,6.44-23.77,22.4-16.27,39.06,4.45,9.88,8.96,19.73,13.46,29.59,5.78,12.66,5.78,25.31,0,37.97-4.5,9.86-9.01,19.71-13.45,29.59-7.51,16.69-.87,32.66,16.21,39.09,10.03,3.77,20.05,7.56,30.1,11.26,13.34,4.92,22.41,14.03,27.32,27.36,3.66,9.93,7.4,19.83,11.14,29.74,6.57,17.41,22.37,24.04,39.25,16.45,9.66-4.34,19.33-8.64,28.92-13.13,13.02-6.08,25.96-6.1,38.99-.08,9.72,4.49,19.44,9.02,29.28,13.24,3.95,1.69,8.24,2.61,12.37,3.87Z"/>
  <path d="M255.53,104.79c-.59,1.23-1.45,3.55-2.74,5.59-28.01,44.08-56.07,88.14-84.11,132.2-8.3,13.04-16.59,26.08-24.9,39.12-.73,1.15-1.48,2.34-2.43,3.3-2.72,2.78-6.73,3.13-9.91,1.02-3.15-2.1-4.45-6.03-3.01-9.55.51-1.26,1.3-2.41,2.04-3.56,36.41-57.21,72.82-114.42,109.24-171.61.8-1.25,1.65-2.54,2.75-3.51,2.45-2.16,5.32-2.66,8.35-1.27,2.99,1.37,4.56,3.75,4.73,8.29Z"/>
  <path d="M135.69,159.53c-22.04-.04-39.92-17.99-39.84-40.01.08-21.99,18.14-39.82,40.18-39.67,21.93.16,39.67,17.95,39.7,39.81.03,21.97-17.98,39.9-40.03,39.86ZM159.63,119.55c-.06-13.28-10.81-23.89-24.1-23.79-12.99.09-23.71,10.88-23.75,23.89-.04,13.12,10.88,24.02,24.04,23.99,13.24-.02,23.88-10.78,23.82-24.09Z"/>
  <path d="M247.49,223.58c22.06-.05,40,17.81,40,39.84,0,22.02-17.96,39.9-40.01,39.84-21.89-.06-39.68-17.76-39.87-39.66-.19-21.88,17.83-39.96,39.88-40.02ZM247.51,239.48c-13.25.03-23.87,10.78-23.8,24.1.07,13.12,10.66,23.74,23.74,23.79,13.18.05,24.08-10.76,24.11-23.92.03-13.15-10.87-24-24.05-23.97Z"/>
</svg>