<?xml version="1.0" encoding="UTF-8"?>
<svg id="Layer_1" xmlns="http://www.w3.org/2000/svg" viewBox="0 0 254.05 254.12">
  <path d="M150.26,254.12c-5.53.1-10.34-3.23-12.86-9.36-6.45-15.67-12.81-31.37-19.2-47.06-5.03-12.35-10.11-24.67-15.03-37.06-1.87-4.71-5-7.79-9.71-9.7-28.05-11.35-56.07-22.8-84.08-34.26-7.65-3.13-11.08-10.23-8.56-17.49,1.6-4.62,5.16-7.1,9.53-8.83,24.9-9.84,49.78-19.74,74.66-29.64C134.65,40.96,184.34,21.3,233.9,1.35c10.86-4.37,19.47,2.62,20.11,10.41.23,2.84-.52,5.97-1.59,8.66-18.36,46.46-36.85,92.87-55.3,139.29-11.14,28.02-22.3,56.02-33.36,84.07-2.43,6.17-6.46,9.94-13.5,10.34ZM150.36,240.4c27.96-70.31,55.48-139.53,83-208.74-.19-.11-.38-.22-.57-.33-40.01,39.3-80.02,78.6-119.73,117.6,12.42,30.46,24.64,60.41,37.31,91.47ZM13.81,103.73c2.56,1.07,4.02,1.7,5.5,2.3,26.52,10.8,53.08,21.53,79.54,32.48,2.9,1.2,4.52.88,6.69-1.26,37.67-37.12,75.43-74.17,113.18-111.21,1.66-1.63,3.48-3.09,5.22-4.63-.24-.32-.48-.64-.72-.97C153.76,48.06,84.31,75.69,13.81,103.73Z"/>
</svg>