<?xml version="1.0" encoding="UTF-8"?>
<svg id="Layer_1" xmlns="http://www.w3.org/2000/svg" viewBox="0 0 367.99 383.33">
  <path d="M189.22,0c12.31,2.64,21.8,10.1,30.64,18.39,10.77,10.09,23.16,13.75,37.77,11.98,7.73-.93,15.79-1.18,23.46-.05,15.11,2.22,24.62,11.79,29.36,26.06,2,6.01,3.64,12.18,4.93,18.38,2.65,12.65,9.65,21.88,20.78,28.28,5.07,2.92,10.06,6.04,14.77,9.49,15.63,11.44,20.52,26.71,14.52,45.12-1.7,5.2-3.61,10.37-5.94,15.31-5.93,12.58-5.57,24.84.01,37.52,3.33,7.58,6.19,15.57,7.77,23.67,2.62,13.48-2.35,24.9-12.78,33.57-5.43,4.52-11.42,8.49-17.58,11.96-12.12,6.83-19.36,16.83-21.97,30.42-.92,4.76-2.2,9.47-3.64,14.1-6.57,21.1-21.35,31.07-43.48,29.5-5.84-.42-11.69-.78-17.54-1.14-10.1-.63-18.84,2.71-26.54,9.12-5.27,4.38-10.42,8.94-15.95,12.99-15.89,11.63-32.19,11.52-47.98-.2-4.4-3.26-8.7-6.71-12.71-10.44-10.31-9.59-22.34-12.72-36.2-11.25-8,.85-16.3,1.24-24.2.07-15.1-2.23-24.59-11.86-29.27-26.15-2.05-6.26-3.67-12.68-5.13-19.11-2.63-11.59-8.88-20.38-19.11-26.47-5.35-3.19-10.65-6.5-15.72-10.1-15.85-11.24-21.06-26.79-15.1-45.26,1.91-5.91,4.29-11.69,6.77-17.4,4.92-11.28,4.89-22.42-.06-33.68-2.4-5.47-4.61-11.04-6.49-16.7-6.27-18.88-1.22-34.33,15-45.9,5.07-3.61,10.38-6.91,15.73-10.09,10.11-6.02,16.33-14.72,18.92-26.17,1.26-5.58,2.61-11.16,4.3-16.63,6.61-21.41,21.69-31.47,44.07-29.69,6.21.5,12.44.9,18.66,1.13,8.41.31,15.96-2.29,22.61-7.43,2.27-1.75,4.55-3.5,6.7-5.4,8.9-7.89,18.12-15.21,30.14-17.84h10.48ZM270.36,338.86c14.56.31,22.53-5.33,26.6-18.72,1.49-4.88,2.71-9.85,3.79-14.84,3.58-16.52,12.51-29.05,27.19-37.58,5.27-3.06,10.44-6.38,15.32-10.02,8.74-6.52,11.78-15.24,8.46-25.76-1.64-5.21-3.52-10.39-5.8-15.35-7.66-16.66-7.7-33.18-.05-49.85,2.28-4.96,4.26-10.12,5.81-15.35,3.25-10.97.56-19.12-8.61-26.03-4.77-3.59-9.86-6.79-15.02-9.79-14.78-8.6-23.75-21.22-27.35-37.89-1.34-6.19-3-12.36-5.13-18.32-3.13-8.75-9.52-14.07-18.95-14.55-6.56-.34-13.21-.04-19.76.58-15.88,1.52-30.21-1.82-42.57-12.3-4.85-4.11-9.66-8.3-14.75-12.09-10.99-8.18-20.16-8.16-31.13.03-4.89,3.65-9.52,7.66-14.15,11.64-12.5,10.73-27.02,14.38-43.18,12.67-4.96-.52-9.95-.94-14.93-.98-13.31-.11-21.01,5.47-25,18.16-1.6,5.1-2.82,10.33-3.98,15.56-3.57,16.22-12.28,28.67-26.66,37.12-3.65,2.15-7.29,4.34-10.78,6.74-2.96,2.04-5.93,4.18-8.48,6.7-5.22,5.15-7.66,11.61-5.77,18.77,1.86,7.06,4.28,14.05,7.18,20.76,6.77,15.66,6.91,31.12,0,46.73-2.16,4.89-4.17,9.88-5.85,14.95-4.18,12.61-1.36,21.33,9.39,29.04,4.25,3.04,8.7,5.83,13.23,8.45,15.02,8.67,24.2,21.42,27.88,38.39,1.47,6.78,3.39,13.56,5.95,20,3.05,7.66,9.24,12.14,17.53,12.61,6.44.37,12.97.24,19.38-.45,17.31-1.86,32.61,2.25,45.71,13.98,4.08,3.66,8.29,7.22,12.7,10.47,10.89,8.03,19.96,8,30.82-.04,4.2-3.11,8.24-6.48,12.12-9.99,13.24-11.95,28.68-16.52,46.29-14.35,4.33.53,8.7.63,12.54.89Z"/>
  <path d="M155.63,100.91c7.03-11.49,13.84-22.64,20.67-33.78,4.72-7.71,10.62-7.72,15.33-.03,6.83,11.14,13.64,22.3,20.65,33.75,2.95-1.27,5.79-2.44,8.59-3.69,7.95-3.56,15.91-7.12,23.83-10.76,3.25-1.49,6.29-1.55,9.04.92,2.65,2.38,2.88,5.42,1.89,8.6-6.74,21.5-13.49,43-20.31,64.47-1.3,4.1-3.76,5.76-8.13,5.76-28.81.02-57.62.02-86.42,0-4.5,0-6.89-1.75-8.27-6.11-6.72-21.25-13.38-42.51-20.07-63.76-1.05-3.33-1-6.44,1.78-8.94,2.89-2.61,6.01-2.31,9.37-.78,10.52,4.8,21.1,9.46,32.06,14.35ZM132.02,106.77c-.13.76-.25,1.02-.19,1.21,4.28,13.66,8.65,27.3,12.81,41,.72,2.37,2.17,2.23,3.93,2.23,23.58-.01,47.16-.06,70.73.07,2.69.01,3.59-.96,4.31-3.32,3.81-12.51,7.8-24.96,11.71-37.43.34-1.08.62-2.19,1.11-3.93-8.28,3.68-15.75,7.07-23.28,10.33-4.63,2.01-7.86.98-10.58-3.23-1.96-3.04-3.8-6.15-5.68-9.23-4.2-6.87-8.4-13.74-12.84-21.01-.97,1.43-1.67,2.4-2.3,3.43-5.27,8.61-10.52,17.24-15.8,25.84-3.34,5.44-6.41,6.4-12.21,3.81-7.15-3.19-14.29-6.42-21.73-9.77Z"/>
  <path d="M183.56,304.23c-26.93,0-53.86,0-80.8,0-1.62,0-3.26.01-4.85-.24-3.55-.56-5.97-3.44-6.07-6.99-.11-3.73,2.26-6.77,5.96-7.46,1.33-.25,2.73-.26,4.09-.26,54.74-.01,109.47-.01,164.21,0,1.49,0,3.02.03,4.45.35,3.46.78,5.66,3.86,5.52,7.44-.13,3.41-2.43,6.26-5.78,6.86-1.7.3-3.47.29-5.22.29-27.18.02-54.36.01-81.54.01Z"/>
  <path d="M233.02,245.57c0,6.28-.01,12.25,0,18.21,0,3.17-.83,5.92-3.74,7.65-4.43,2.62-10.04.08-10.97-5.01-.24-1.34-.24-2.73-.24-4.09-.01-19.07-.02-38.13,0-57.2,0-7.87,2.35-10.19,10.29-10.17,5.73.02,11.49-.21,17.18.27,12.99,1.1,22.85,11.91,22.94,24.7.09,12.62-9.43,23.44-22.24,24.98-4.17.5-8.41.44-13.21.67ZM233.3,230.54c4.33-.25,8.44-.16,12.41-.81,4.12-.68,7.17-4.47,7.73-8.58.51-3.71-1.72-8.07-5.42-9.84-4.77-2.29-9.78-1.43-14.72-1.07v20.31Z"/>
  <path d="M130.24,243.25c5.42-14.57,10.51-28.21,15.54-41.86,1.04-2.82,2.41-5.71,5.56-5.87,2.47-.13,5.45.66,7.41,2.1,2.63,1.94,2.48,5.18,1.34,8.24-5.65,15.17-11.26,30.35-16.89,45.52-1.9,5.14-3.81,10.27-5.7,15.41-1.23,3.34-3.48,5.53-7.15,5.61-3.86.08-6.21-2.15-7.5-5.64-7.54-20.31-15.11-40.61-22.61-60.93-1.69-4.59.04-8.78,3.97-10.28,4.22-1.61,8.26.37,10.07,5.16,4.79,12.7,9.48,25.43,14.21,38.15.42,1.14.9,2.26,1.75,4.4Z"/>
  <path d="M178.72,233.53c0-9.84-.01-19.68,0-29.53.01-5.52,2.77-8.88,7.29-8.99,4.67-.11,7.66,3.35,7.67,9.01.02,19.81.02,39.62,0,59.43,0,5.64-3.03,9.13-7.69,9.01-4.53-.12-7.26-3.47-7.27-9.02-.02-9.97,0-19.93,0-29.9Z"/>
</svg>