<?xml version="1.0" encoding="UTF-8"?>
<svg id="Layer_1" xmlns="http://www.w3.org/2000/svg" viewBox="0 0 343.42 295.49">
  <path d="M163.76,295.2c-26.32,0-52.66.77-78.94-.21-27.5-1.03-50.67-12.09-67.42-34.67C6.69,245.88.8,229.36.56,211.58c-.57-42.52-.92-85.07.01-127.58C1.53,40.08,34.02,5.94,77.65,1.08c5.69-.63,11.44-.95,17.16-.96,48.27-.04,96.54-.33,144.81.15,47.76.48,82.7,33.06,87.17,80.51.69,7.3.55,14.69.63,22.04.02,2.05.51,3.29,2.4,4.48,8.65,5.4,13.37,13.26,13.49,23.55.13,11.35.15,22.7-.02,34.05-.15,9.98-4.74,17.72-13.11,22.99-2.32,1.46-2.81,3-2.75,5.42.33,13.75-.24,27.39-4.29,40.71-10.18,33.52-38.22,56.87-72.99,60.42-5.69.58-11.44.87-17.16.9-23.07.1-46.15.04-69.22.04,0-.06,0-.12,0-.18ZM303.45,102.88c0-5.36.15-10.33-.02-15.28-1.33-37.26-27.08-63.04-64.31-63.38-47.77-.43-95.54-.19-143.31-.14-5.47,0-11,.19-16.4.98-23.78,3.45-41.2,15.51-50.33,38.25-3.71,9.25-4.97,18.98-4.96,28.93.05,36.92-.01,73.84.06,110.76,0,4.47.33,8.98.88,13.42,3.66,29.1,25.05,50.47,54.08,54.11,2.84.36,5.7.77,8.56.77,50.64.05,101.29.73,151.91-.17,43.46-.77,67.9-33.28,63.47-78.51-6.05,0-12.16.38-18.21-.11-5.65-.46-11.45-1.15-16.78-2.95-21.91-7.42-33.95-28.44-29.68-50.97,3.71-19.58,22.27-35.25,42.43-35.68,7.44-.16,14.89-.03,22.62-.03ZM298.19,127.09c-.75,0-1.49-.02-2.24,0-6.33.22-12.81-.31-18.96.85-9.25,1.75-15.97,11.54-15.38,20.75.61,9.61,8.89,18.61,18.77,19.17,11.42.65,22.89.4,34.34.46,3.19.02,4.72-1.73,4.71-4.95-.03-10.33.03-20.67-.03-31-.02-3.92-1.24-5.17-5.15-5.24-5.35-.1-10.71-.02-16.06-.04Z"/>
  <path d="M139.58,111.8c-15.71,0-31.43,0-47.14,0-5.08,0-8.92-2.23-11.21-6.73-2.09-4.11-1.7-8.26.89-12.05,2.34-3.42,5.71-5.15,9.86-5.15,31.93-.02,63.86-.05,95.78.02,6.8.02,11.84,5.29,11.86,11.89.02,6.77-5.09,11.95-12.15,11.99-15.96.08-31.93.03-47.89.03Z"/>
</svg>