<?xml version="1.0" encoding="UTF-8"?>
<svg id="Layer_1" xmlns="http://www.w3.org/2000/svg" viewBox="0 0 352.24 98.58">
  <defs>
    <style>
      .cls-1 {
        letter-spacing: 0em;
      }

      .cls-1, .cls-2, .cls-3 {
        fill: #a3a3a3;
      }

      .cls-4 {
        font-family: CinaGEOTest-Medium, 'Cina GEO Test';
        font-size: 72px;
        font-weight: 500;
      }

      .cls-2 {
        letter-spacing: -.02em;
      }

      .cls-5 {
        letter-spacing: -.04em;
      }

      .cls-5, .cls-6 {
        fill: #6d6d6d;
      }

      .cls-6 {
        letter-spacing: 0em;
      }
    </style>
  </defs>
  <text class="cls-4" transform="translate(0 83.1)"><tspan x="0" y="0">m</tspan><tspan class="cls-5" x="66.53" y="0">e</tspan><tspan class="cls-6" x="107.06" y="0">x</tspan><tspan class="cls-3" x="145.73" y="0">plo</tspan><tspan class="cls-2" x="255.52" y="0">r</tspan><tspan class="cls-1" x="282.24" y="0">e</tspan></text>
  <path d="M333.62,30.8c.76-.23,1.5-.53,2.27-.69,1.55-.33,3.11-.63,4.67-.85,1.97-.27,3.9,0,5.76.72,1.59.62,2.74,1.7,3.68,3.11,1.34,2,1.68,4.27,2.02,6.56.29,1.97.3,3.94,0,5.91-.47,3.13-1.73,5.86-3.94,8.14-.02.02-.04.03-.05.04-.71,1.36-1.9,1.37-3.17,1.09-1.79-.39-3.57-.84-5.37-1.22-2.39-.51-4.75-1.21-7.23-1.17-.21,0-.42.05-.66.08.69.94,1.41,1.79,1.98,2.73.27.44.44,1.06-.04,1.56-.35.36-1.31.4-1.85-.03-1.12-.91-2.21-1.85-3.26-2.84-2.03-1.9-4.04-3.82-6.04-5.75-.92-.88-1.79-1.81-2.7-2.7-1.29-1.27-2.61-2.5-3.89-3.78-1.03-1.03-1.94-2.23-1.68-3.74.27-1.56-.78-2.47-1.36-3.62-.29-.58-.69-1.1-1.06-1.63-.95-1.35-2.25-1.95-4.06-1.34.2.24.38.45.58.69-.08.12-.17.26-.29.45-.26-.19-.52-.38-.78-.57-.06.04-.13.08-.19.11.13.23.27.47.4.7.08.14.17.27.18.45-.97-.38-1.04-.86-.68-1.75.25-.61.43-1.12,1.09-1.46,1.49-.75,3.55-.32,4.54.97,1.15,1.49,2.16,3.06,2.95,4.78.1.22.43.38.69.46.42.13.86.18,1.3.26-.21-1.39-.47-2.76-.61-4.14-.15-1.51-.23-3.03-.25-4.54-.02-2.22-.05-4.45.11-6.67.23-3.19.53-6.37.98-9.53.36-2.54,1-5.06,2.07-7.42.56-1.23,1.33-2.37,2.35-3.29.96-.87,2.82-1.17,3.74-.53.57.4,1.11.89,1.55,1.44,1.22,1.5,2.4,3.04,3.57,4.58.7.93,1.32,1.91,2.03,2.83,1,1.29,2.05,2.55,3.09,3.81,1.3,1.58,2.65,3.11,3.9,4.72.94,1.22,1.87,2.47,2.25,4.03.19.77-.03,1.69-.64,2.17-1.21.95-2.46,1.85-3.63,2.84-1.49,1.26-2.93,2.59-4.39,3.89.02.05.04.1.06.15ZM307.89,30.83c1.24-.24,2.43-.25,3.28.65.82.86,1.47,1.9,2.13,2.91.49.74.87,1.55,1.32,2.35.64-.4.23-.88.03-1.22-.81-1.36-1.71-2.67-2.54-4.02-.77-1.25-2.98-1.72-4.21-.66Z"/>
</svg>